<?xml version="1.0" encoding="utf-8"?>
<!-- Generator: Adobe Illustrator 21.0.2, SVG Export Plug-In . SVG Version: 6.00 Build 0)  -->
<svg version="1.1"
	 id="svg2" inkscape:version="0.91 r13725" sodipodi:docname="black-coffee-cup.svg" xmlns:cc="http://creativecommons.org/ns#" xmlns:dc="http://purl.org/dc/elements/1.1/" xmlns:inkscape="http://www.inkscape.org/namespaces/inkscape" xmlns:rdf="http://www.w3.org/1999/02/22-rdf-syntax-ns#" xmlns:sodipodi="http://sodipodi.sourceforge.net/DTD/sodipodi-0.dtd" xmlns:svg="http://www.w3.org/2000/svg"
	 xmlns="http://www.w3.org/2000/svg" xmlns:xlink="http://www.w3.org/1999/xlink" x="0px" y="0px" viewBox="0 0 126.9 205.7"
	 style="enable-background:new 0 0 126.9 205.7;" xml:space="preserve">
<style type="text/css">
	.st0{fill:#222222;stroke:#FFFFFF;stroke-width:2.6941;stroke-linecap:round;stroke-linejoin:round;}
	.st1{fill:#FFFFFF;fill-opacity:0;stroke:#FFFFFF;stroke-width:1.2723;stroke-linecap:round;stroke-linejoin:round;}
	.st2{fill:#222222;stroke:#FFFFFF;stroke-linecap:round;stroke-linejoin:round;}
	.st3{fill:#FFFFFF;stroke:#FFFFFF;stroke-linecap:round;stroke-linejoin:round;}
	.st4{fill:#222222;stroke:#FFFFFF;stroke-width:2;stroke-linecap:round;stroke-linejoin:round;}
	.st5{fill:#FFFFFF;}
</style>
<title  id="title4121">caf</title>
<sodipodi:namedview  bordercolor="#666666" borderopacity="1.0" fit-margin-bottom="0" fit-margin-left="0" fit-margin-right="0" fit-margin-top="0" id="base" inkscape:current-layer="layer1" inkscape:cx="74.900685" inkscape:cy="85.704857" inkscape:document-units="px" inkscape:guide-bbox="true" inkscape:pageopacity="0" inkscape:pageshadow="2" inkscape:window-height="756" inkscape:window-maximized="0" inkscape:window-width="1280" inkscape:window-x="23" inkscape:window-y="0" inkscape:zoom="2.0234374" pagecolor="#ff0000" showgrid="false" showguides="true">
	</sodipodi:namedview>
<g id="layer1" transform="translate(-246.62183,-111.67735)" inkscape:groupmode="layer" inkscape:label="Calque 1">
	
		<path id="path4083" sodipodi:cx="-234.50194" sodipodi:cy="64.4394" sodipodi:rx="74.872589" sodipodi:ry="21.745173" sodipodi:type="arc" class="st0" d="
		M365.7,129.2c0,8.9-24.8,16.2-55.5,16.2s-55.5-7.2-55.5-16.2l0,0c0-8.9,24.8-16.2,55.5-16.2l0,0C340.8,113,365.7,120.3,365.7,129.2
		L365.7,129.2z"/>
	
		<path id="path4085" sodipodi:cx="-235.49034" sodipodi:cy="70.864113" sodipodi:rx="58.563705" sodipodi:ry="14.826255" sodipodi:type="arc" class="st1" d="
		M358,129c0,6.4-20.7,11.6-46.3,11.6l0,0c-25.6,0-46.3-5.2-46.3-11.6l0,0c0-6.4,20.7-11.6,46.3-11.6l0,0
		C337.2,117.4,358,122.6,358,129L358,129z"/>
	<path id="path4087" inkscape:connector-curvature="0" sodipodi:nodetypes="cc" class="st2" d="M278.9,121.8l32.3,18.7"/>
	<path id="path4089" inkscape:connector-curvature="0" sodipodi:nodetypes="cc" class="st3" d="M278.5,121.7l-7.3,12.9"/>
	<path id="rect4091" inkscape:connector-curvature="0" sodipodi:nodetypes="sssssssss" class="st2" d="M262.7,130.5l6.7,4.7
		c0.6,0.4-0.2,1.1-0.4,1.3l-0.4,0.3c-0.6,0.4-1.4,0.5-2,0.1l-7-4.7c-0.6-0.4,0-1,0.6-1.4l0.3-0.2C261,130.1,262.1,130.1,262.7,130.5
		L262.7,130.5z"/>
	<path id="path4097" inkscape:connector-curvature="0" sodipodi:nodetypes="ccccc" class="st4" d="M251,159.7l21.6,142.8
		c18.5,20.3,62.9,16.9,78-0.7l17.6-141.7C333.2,170,294.7,176.7,251,159.7z"/>
	<path id="path4095" inkscape:connector-curvature="0" sodipodi:nodetypes="ccccc" class="st4" d="M247.6,144l1.2,13.5
		c30.9,26.4,115.2,17,122.6-1.2l0.8-12C338.8,164.4,298.2,159.6,247.6,144L247.6,144z"/>
	<path id="path4093" inkscape:connector-curvature="0" sodipodi:nodetypes="ccccccccc" class="st4" d="M254.7,128.9l-1.5,6.9
		l-4.4,3.3l-1.2,5.1c12.1,16.1,99.3,25.2,124.9,1.9l-0.6-5.5l-4.4-4.4l-2-7.9C363.7,149.7,265.7,152,254.7,128.9L254.7,128.9z"/>
</g>
<path class="st5" d="M36.8,97.7l5.6-4.7v15.5l7.7-7.7l7.8,6.9V92.5h5.8v23.1l-3,2.7L50,109.1l-13.3,11.8V97.7H36.8z M38,98.3v20
	l12.1-10.9l10.7,9.2l1.9-1.8V93.6L59,93.7v16.6l-8.9-7.8l-8.9,8.9V95.5L38,98.3z"/>
<path class="st5" d="M65.6,92.6h8.9l8.8,8.9v-8.9h6.3v29.2l-6.3-4.4v-6.7l-8.5-8.5v13.3h-5.9V96.7L65.6,92.6z M67.8,93.7L70,96v18.5
	h3.7V99.7l10.8,10.7v6.3l4.1,2.6V93.7h-4.1v10.8L74.1,93.7H67.8z"/>
<path class="st5" d="M44.9,127.9h3.5v2.4l2.6-2.4l5.2,5.8l-2.1,2.1h-5.8v5.6h-3.5C44.9,141.4,44.9,127.9,44.9,127.9z M45.6,128.6
	v12.4h2.1v-5.8h6.2l1.4-1.4l-4.4-5l-3.3,3.1v-3.3L45.6,128.6L45.6,128.6z M50.8,131.2l-2.1,2.4h4.2L50.8,131.2z M50.8,132.2l0.7,0.9
	h-1.4L50.8,132.2z"/>
<path class="st5" d="M70.1,138.2l-1.9,3.3h-11v-13.6h3.5L70.1,138.2z M60.2,128.6h-2.4v12.3h9.9l1.5-2.7L60.2,128.6z M67,138.4h-7
	v-7.3L67,138.4z M60.7,132.7v5.1h4.7L60.7,132.7z"/>
<path class="st5" d="M71.2,127.9l2.9,2.2v1.2l2.1,1.8l2-1.7v-3.5h3.2v5.5l-2.5,2.1l2.5,2.1v7.4l-3.1-1.9v-3.4l-2.1-1.8l-2.1,1.8v1.8
	h-2.9l0.8-0.5h1.3v-1.6l2.9-2.6l2.9,2.6v3.1l1.6,1.1v-5.7l-2.9-2.4l2.9-2.7v-4.2h-1.6v2.9l-2.9,2.7l-2.9-2.7v-1.1l-1.3-1.1v3.7
	l2.6,2.4l-2.6,2.4v3.1l-0.8,0.5v-3.9l2.4-2.1l-2.4-2.1L71.2,127.9L71.2,127.9z"/>
</svg>
